<?xml version="1.0" encoding="UTF-8" standalone="no"?>
<svg
   version="1.1"
   width="48"
   height="48"
   id="svg43"
   sodipodi:docname="example.svg"
   inkscape:version="1.2.2 (b0a8486541, 2022-12-01)"
   xmlns:inkscape="http://www.inkscape.org/namespaces/inkscape"
   xmlns:sodipodi="http://sodipodi.sourceforge.net/DTD/sodipodi-0.dtd"
   xmlns:xlink="http://www.w3.org/1999/xlink"
   xmlns="http://www.w3.org/2000/svg"
   xmlns:svg="http://www.w3.org/2000/svg"
   xmlns:rdf="http://www.w3.org/1999/02/22-rdf-syntax-ns#"
   xmlns:cc="http://creativecommons.org/ns#"
   xmlns:dc="http://purl.org/dc/elements/1.1/">
  <sodipodi:namedview
     id="namedview45"
     pagecolor="#ffffff"
     bordercolor="#000000"
     borderopacity="0.25"
     inkscape:showpageshadow="2"
     inkscape:pageopacity="0.0"
     inkscape:pagecheckerboard="0"
     inkscape:deskcolor="#d1d1d1"
     showgrid="false"
     inkscape:zoom="17.404324"
     inkscape:cx="25.482173"
     inkscape:cy="24.878875"
     inkscape:window-width="1920"
     inkscape:window-height="1174"
     inkscape:window-x="0"
     inkscape:window-y="0"
     inkscape:window-maximized="1"
     inkscape:current-layer="svg43" />
  <defs
     id="defs21">
    <linearGradient
       id="lg1">
      <stop
         offset="0"
         style="stop-color:#fffcde;stop-opacity:1"
         id="stop2" />
      <stop
         offset="0.64485979"
         style="stop-color:#f6e76a;stop-opacity:1"
         id="stop4" />
      <stop
         offset="1"
         style="stop-color:#ffb738;stop-opacity:1"
         id="stop6" />
    </linearGradient>
    <radialGradient
       cx="29.288071"
       cy="15.720984"
       r="8.9020796"
       fx="29.158466"
       fy="15.755712"
       id="rg1"
       xlink:href="#lg1"
       gradientUnits="userSpaceOnUse"
       gradientTransform="matrix(2.1068676,0,0,2.1151481,-41.329592,-17.384562)" />
    <radialGradient
       cx="25.0527"
       cy="39.5928"
       r="15.7572"
       fx="25.0527"
       fy="39.5928"
       id="rg2"
       gradientUnits="userSpaceOnUse"
       gradientTransform="matrix(1.25,0,0,1.25,-6.479446,-13.37211)">
      <stop
         offset="0"
         style="stop-color:#777;stop-opacity:1"
         id="stop10" />
      <stop
         offset="1"
         style="stop-color:#000;stop-opacity:1"
         id="stop12" />
    </radialGradient>
    <linearGradient
       id="lg2">
      <stop
         offset="0"
         style="stop-color:#000;stop-opacity:1"
         id="stop15" />
      <stop
         offset="1"
         style="stop-color:#000;stop-opacity:0"
         id="stop17" />
    </linearGradient>
    <radialGradient
       cx="24.714285"
       cy="38.57143"
       r="19.714285"
       fx="24.714285"
       fy="38.57143"
       id="rg3"
       xlink:href="#lg2"
       gradientUnits="userSpaceOnUse"
       gradientTransform="matrix(1,0,0,0.333333,0,25.71429)" />
  </defs>
  <metadata
     id="metadata23">
    <rdf:RDF>
      <cc:Work
         rdf:about="">
        <dc:format>image/svg+xml</dc:format>
        <dc:type
           rdf:resource="http://purl.org/dc/dcmitype/StillImage" />
        <dc:subject>
          <rdf:Bag>
            <rdf:li>emoticon</rdf:li>
            <rdf:li>emote</rdf:li>
            <rdf:li>smiley</rdf:li>
            <rdf:li>happy</rdf:li>
            <rdf:li>:)</rdf:li>
            <rdf:li>:-)</rdf:li>
          </rdf:Bag>
        </dc:subject>
        <cc:license
           rdf:resource="http://creativecommons.org/licenses/by-sa/2.0/" />
        <dc:creator>
          <cc:Agent>
            <dc:title>Jakub Steiner</dc:title>
          </cc:Agent>
        </dc:creator>
        <dc:source>http://jimmac.musichall.cz</dc:source>
      </cc:Work>
      <cc:License
         rdf:about="http://creativecommons.org/licenses/by-sa/2.0/">
        <cc:permits
           rdf:resource="http://web.resource.org/cc/Reproduction" />
        <cc:permits
           rdf:resource="http://web.resource.org/cc/Distribution" />
        <cc:requires
           rdf:resource="http://web.resource.org/cc/Notice" />
        <cc:requires
           rdf:resource="http://web.resource.org/cc/Attribution" />
        <cc:permits
           rdf:resource="http://web.resource.org/cc/DerivativeWorks" />
        <cc:requires
           rdf:resource="http://web.resource.org/cc/ShareAlike" />
      </cc:License>
    </rdf:RDF>
  </metadata>
  <path
     d="m 42.470549,22.821489 c 0,10.118707 -8.170717,18.321537 -18.249807,18.321537 -10.079091,0 -18.2498085,-8.20283 -18.2498085,-18.321537 0,-10.118705 8.1707175,-18.3215366 18.2498085,-18.3215366 10.07909,0 18.249807,8.2028316 18.249807,18.3215366 z"
     style="color:#000000;overflow:visible;fill:url(#rg1);fill-rule:evenodd;stroke:#9c8c0a;stroke-width:1.01337;stroke-linecap:round;stroke-linejoin:round"
     id="path27" />
  <path
     d="m37.284637 24.719966c-3.016467 5.224673-6.543503 8.990039-12.822145 8.990039-6.100017 0-10.565537-4.339697-13.352476-9.166816 2.549413 3.05592 6.282932 6.566312 13.087311 6.566312 8.130204 0 9.551776-2.906855 13.08731-6.389535z"
     style="color:#000;fill:#fff;opacity:0.36;overflow:visible"
     id="path31" />
  <path
     d="m37.284637 24.012862c-3.016467 5.224673-6.543503 8.990039-12.822145 8.990039-6.100017 0-10.565537-4.339697-13.352476-9.166816 2.549413 3.05592 6.282932 6.566312 13.087311 6.566312 8.130204 0 9.551776-2.906855 13.08731-6.389535z"
     fill="url(#rg2)"
     id="path33" />
  <path
     d="m21.751711 17.714134c0 2.5-1.125 4.5-2.5 4.5-1.375 0-2.625-2-2.625-4.5 0-2.5 1.125-4.5 2.5-4.5 1.375 0 2.5 2 2.5 4.5l0.125 0zM31.042065 17.714134"
     style="fill:#fff;opacity:0.36"
     id="path35" />
  <path
     d="m31.042065 17.714134c0 2.5-1.125 4.5-2.5 4.5-1.375 0-2.5-2-2.5-4.5 0-2.5 1.125-4.5 2.5-4.5 1.375 0 2.5 2 2.5 4.5z"
     style="fill:#fff;opacity:0.36"
     id="path37" />
  <path
     d="m21.751711 17.089134c0 2.5-1.125 4.5-2.5 4.5-1.375 0-2.5-2-2.5-4.5 0-2.5 1.125-4.5 2.5-4.5 1.375 0 2.5 2 2.5 4.5zM31.042065 17.089134"
     fill="#000"
     id="path39" />
  <path
     d="m31.042065 17.089134c0 2.5-1.125 4.5-2.5 4.5-1.375 0-2.5-2-2.5-4.5 0-2.5 1.125-4.5 2.5-4.5 1.375 0 2.5 2 2.5 4.5z"
     fill="#000"
     id="path41" />
</svg>
